<?xml version="1.0" encoding="UTF-8" standalone="no"?>
<!DOCTYPE svg PUBLIC "-//W3C//DTD SVG 1.1//EN"
 "http://www.w3.org/Graphics/SVG/1.1/DTD/svg11.dtd">
<!-- Generated by graphviz version 2.40.1 (20161225.0304)
 -->
<!-- Title: %3 Pages: 1 -->
<svg width="1529pt" height="743pt"
 viewBox="0.00 0.00 1528.72 743.00" xmlns="http://www.w3.org/2000/svg" xmlns:xlink="http://www.w3.org/1999/xlink">
<g id="graph0" class="graph" transform="scale(1 1) rotate(0) translate(0 743)">
<title>%3</title>
<polygon fill="#ffffff" stroke="transparent" points="0,0 0,-743 1528.7221,-743 1528.7221,0 0,0"/>
<g id="clust1" class="cluster">
<title>cluster_no_resources</title>
<polygon fill="none" stroke="#c0c0c0" points="150.7221,-101 150.7221,-269 269.7221,-269 269.7221,-101 150.7221,-101"/>
<text text-anchor="middle" x="210.2221" y="-253.8" font-family="Times,serif" font-size="14.00" fill="#000000">Not K8S resources</text>
</g>
<g id="clust2" class="cluster">
<title>cluster_workload</title>
<polygon fill="none" stroke="#c0c0c0" points="518.7221,-300 518.7221,-375 589.7221,-375 589.7221,-300 518.7221,-300"/>
<text text-anchor="middle" x="554.2221" y="-359.8" font-family="Times,serif" font-size="14.00" fill="#000000">Workload</text>
</g>
<g id="clust3" class="cluster">
<title>cluster_controllers</title>
<polygon fill="none" stroke="#c0c0c0" points="56.7221,-414 56.7221,-588 331.7221,-588 331.7221,-414 56.7221,-414"/>
<text text-anchor="middle" x="194.2221" y="-572.8" font-family="Times,serif" font-size="14.00" fill="#000000">Controllers</text>
</g>
<g id="clust5" class="cluster">
<title>cluster_jobs</title>
<polygon fill="none" stroke="#c0c0c0" points="386.7221,-414 386.7221,-588 546.7221,-588 546.7221,-414 386.7221,-414"/>
<text text-anchor="middle" x="466.7221" y="-572.8" font-family="Times,serif" font-size="14.00" fill="#000000">Jobs</text>
</g>
<g id="clust6" class="cluster">
<title>cluster_services</title>
<polygon fill="none" stroke="#c0c0c0" points="554.7221,-414 554.7221,-704 784.7221,-704 784.7221,-414 554.7221,-414"/>
<text text-anchor="middle" x="669.7221" y="-688.8" font-family="Times,serif" font-size="14.00" fill="#000000">Services, load balancing &amp; networking</text>
</g>
<g id="clust7" class="cluster">
<title>cluster_storage</title>
<polygon fill="none" stroke="#c0c0c0" points="294.7221,-8 294.7221,-269 846.7221,-269 846.7221,-8 294.7221,-8"/>
<text text-anchor="middle" x="570.7221" y="-253.8" font-family="Times,serif" font-size="14.00" fill="#000000">Storage</text>
</g>
<g id="clust9" class="cluster">
<title>cluster_configuration</title>
<polygon fill="none" stroke="#c0c0c0" points="876.7221,-194 876.7221,-269 968.7221,-269 968.7221,-194 876.7221,-194"/>
<text text-anchor="middle" x="922.7221" y="-253.8" font-family="Times,serif" font-size="14.00" fill="#000000">Configuration</text>
</g>
<g id="clust10" class="cluster">
<title>cluster_permissions</title>
<polygon fill="none" stroke="#c0c0c0" points="807.7221,-406 807.7221,-735 1520.7221,-735 1520.7221,-406 807.7221,-406"/>
<text text-anchor="middle" x="1164.2221" y="-719.8" font-family="Times,serif" font-size="14.00" fill="#000000">Permissions</text>
</g>
<g id="clust11" class="cluster">
<title>cluster_namespace_permissions</title>
<polygon fill="none" stroke="#c0c0c0" points="815.7221,-414 815.7221,-704 1122.7221,-704 1122.7221,-414 815.7221,-414"/>
<text text-anchor="middle" x="969.2221" y="-688.8" font-family="Times,serif" font-size="14.00" fill="#000000">Namespace&#45;specific</text>
</g>
<g id="clust13" class="cluster">
<title>cluster_global_permissions</title>
<polygon fill="none" stroke="#c0c0c0" points="1130.7221,-414 1130.7221,-704 1512.7221,-704 1512.7221,-414 1130.7221,-414"/>
<text text-anchor="middle" x="1321.7221" y="-688.8" font-family="Times,serif" font-size="14.00" fill="#000000">Global</text>
</g>
<!-- container -->
<g id="node1" class="node">
<title>container</title>
<g id="a_node1"><a xlink:href="https://www.docker.com/resources/what-container" xlink:title="Container">
<polygon fill="none" stroke="#6495ed" stroke-width="2" points="228.7221,-238 158.7221,-238 158.7221,-202 228.7221,-202 228.7221,-238"/>
<text text-anchor="middle" x="193.7221" y="-216.3" font-family="Times,serif" font-size="14.00" fill="#000000">Container</text>
</a>
</g>
</g>
<!-- image -->
<g id="node2" class="node">
<title>image</title>
<g id="a_node2"><a xlink:href="https://kubernetes.io/docs/concepts/containers/images/" xlink:title="Image">
<polygon fill="none" stroke="#6495ed" stroke-width="2" points="212.7221,-145 158.7221,-145 158.7221,-109 212.7221,-109 212.7221,-145"/>
<text text-anchor="middle" x="185.7221" y="-123.3" font-family="Times,serif" font-size="14.00" fill="#000000">Image</text>
</a>
</g>
</g>
<!-- container&#45;&gt;image -->
<g id="edge1" class="edge">
<title>container&#45;&gt;image</title>
<path fill="none" stroke="#006400" d="M192.1416,-201.6262C191.0057,-188.4212 189.4528,-170.369 188.1589,-155.3274"/>
<polygon fill="#006400" stroke="#006400" points="191.6164,-154.6824 187.2722,-145.0192 184.6422,-155.2824 191.6164,-154.6824"/>
<text text-anchor="middle" x="231.2221" y="-165.8" font-family="Times,serif" font-size="14.00" fill="#000000">Initialized with</text>
</g>
<!-- pod -->
<g id="node3" class="node">
<title>pod</title>
<g id="a_node3"><a xlink:href="https://kubernetes.io/docs/concepts/workloads/pods/pod/" xlink:title="Pod">
<polygon fill="none" stroke="#6495ed" stroke-width="2" points="580.7221,-344 526.7221,-344 526.7221,-308 580.7221,-308 580.7221,-344"/>
<text text-anchor="middle" x="553.7221" y="-322.3" font-family="Times,serif" font-size="14.00" fill="#000000">Pod</text>
</a>
</g>
</g>
<!-- pod&#45;&gt;container -->
<g id="edge2" class="edge">
<title>pod&#45;&gt;container</title>
<path fill="none" stroke="#a52a2a" d="M526.6801,-325.2678C448.6043,-322.8956 226.9025,-314.2452 203.7221,-292 192.2919,-281.0309 189.667,-263.507 189.9603,-248.4942"/>
<polygon fill="#a52a2a" stroke="#a52a2a" points="193.4769,-248.3342 190.6054,-238.1359 186.4904,-247.899 193.4769,-248.3342"/>
<text text-anchor="middle" x="325.7221" y="-280.8" font-family="Times,serif" font-size="14.00" fill="#000000">Hosts several, sharing filesystem &amp; network</text>
</g>
<!-- volume -->
<g id="node13" class="node">
<title>volume</title>
<g id="a_node13"><a xlink:href="https://kubernetes.io/docs/concepts/storage/volumes/" xlink:title="Volume">
<polygon fill="none" stroke="#6495ed" stroke-width="2" points="478.2221,-238 417.2221,-238 417.2221,-202 478.2221,-202 478.2221,-238"/>
<text text-anchor="middle" x="447.7221" y="-216.3" font-family="Times,serif" font-size="14.00" fill="#000000">Volume</text>
</a>
</g>
</g>
<!-- pod&#45;&gt;volume -->
<g id="edge13" class="edge">
<title>pod&#45;&gt;volume</title>
<path fill="none" stroke="#a52a2a" d="M526.4853,-319.5619C501.6486,-313.1273 467.5242,-302.6788 458.7221,-292 448.7554,-279.9082 445.8603,-262.6516 445.5259,-248.0639"/>
<polygon fill="#a52a2a" stroke="#a52a2a" points="449.026,-248.0749 445.6706,-238.0255 442.0268,-247.974 449.026,-248.0749"/>
<text text-anchor="middle" x="497.7221" y="-280.8" font-family="Times,serif" font-size="14.00" fill="#000000">Stores data on</text>
</g>
<!-- configmap -->
<g id="node20" class="node">
<title>configmap</title>
<g id="a_node20"><a xlink:href="https://kubernetes.io/docs/concepts/storage/volumes/#configmap" xlink:title="ConfigMap">
<polygon fill="none" stroke="#6495ed" stroke-width="2" points="774.7221,-238 694.7221,-238 694.7221,-202 774.7221,-202 774.7221,-238"/>
<text text-anchor="middle" x="734.7221" y="-216.3" font-family="Times,serif" font-size="14.00" fill="#000000">ConfigMap</text>
</a>
</g>
</g>
<!-- pod&#45;&gt;configmap -->
<g id="edge16" class="edge">
<title>pod&#45;&gt;configmap</title>
<path fill="none" stroke="#a52a2a" d="M549.0673,-307.8178C547.5787,-297.4156 547.9733,-284.9033 555.7221,-277 566.009,-266.508 674.387,-275.1704 687.7221,-269 698.6975,-263.9215 708.4245,-255.0438 716.1409,-246.2276"/>
<polygon fill="#a52a2a" stroke="#a52a2a" points="719.0319,-248.2206 722.6404,-238.2592 713.6075,-243.7962 719.0319,-248.2206"/>
<text text-anchor="middle" x="632.7221" y="-280.8" font-family="Times,serif" font-size="14.00" fill="#000000">Keeps configuration data on</text>
</g>
<!-- secret -->
<g id="node21" class="node">
<title>secret</title>
<g id="a_node21"><a xlink:href="https://kubernetes.io/docs/concepts/configuration/secret/" xlink:title="Secret">
<polygon fill="none" stroke="#6495ed" stroke-width="2" points="949.7221,-238 895.7221,-238 895.7221,-202 949.7221,-202 949.7221,-238"/>
<text text-anchor="middle" x="922.7221" y="-216.3" font-family="Times,serif" font-size="14.00" fill="#000000">Secret</text>
</a>
</g>
</g>
<!-- pod&#45;&gt;secret -->
<g id="edge14" class="edge">
<title>pod&#45;&gt;secret</title>
<path fill="none" stroke="#a52a2a" d="M580.8771,-323.5772C612.7233,-319.9503 666.5216,-311.3396 708.7221,-292 718.8231,-287.371 718.3029,-280.8596 728.7221,-277 779.2613,-258.2787 798.7104,-286.3924 849.7221,-269 865.7214,-263.5451 881.5391,-253.6402 894.3384,-244.1561"/>
<polygon fill="#a52a2a" stroke="#a52a2a" points="896.4983,-246.9104 902.285,-238.0355 892.2268,-241.3646 896.4983,-246.9104"/>
<text text-anchor="middle" x="822.7221" y="-280.8" font-family="Times,serif" font-size="14.00" fill="#000000">Initializes sensitive variables from</text>
</g>
<!-- pod&#45;&gt;secret -->
<g id="edge15" class="edge">
<title>pod&#45;&gt;secret</title>
<path fill="none" stroke="#a52a2a" d="M580.875,-325.4038C660.9644,-323.3801 892.1106,-315.5344 915.7221,-292 926.8882,-280.8704 928.7867,-263.3434 927.8216,-248.3691"/>
<polygon fill="#a52a2a" stroke="#a52a2a" points="931.2599,-247.61 926.7043,-238.0446 924.3006,-248.3632 931.2599,-247.61"/>
<text text-anchor="middle" x="988.2221" y="-280.8" font-family="Times,serif" font-size="14.00" fill="#000000">Stores sensitive data on</text>
</g>
<!-- deployment -->
<g id="node4" class="node">
<title>deployment</title>
<g id="a_node4"><a xlink:href="https://kubernetes.io/docs/concepts/workloads/controllers/deployment/" xlink:title="Deployment">
<polygon fill="none" stroke="#6495ed" stroke-width="2" points="148.7221,-557 64.7221,-557 64.7221,-521 148.7221,-521 148.7221,-557"/>
<text text-anchor="middle" x="106.7221" y="-535.3" font-family="Times,serif" font-size="14.00" fill="#000000">Deployment</text>
</a>
</g>
</g>
<!-- replicaset -->
<g id="node5" class="node">
<title>replicaset</title>
<g id="a_node5"><a xlink:href="https://kubernetes.io/docs/concepts/workloads/controllers/replicaset/" xlink:title="ReplicaSet">
<polygon fill="none" stroke="#6495ed" stroke-width="2" points="139.2221,-458 64.2221,-458 64.2221,-422 139.2221,-422 139.2221,-458"/>
<text text-anchor="middle" x="101.7221" y="-436.3" font-family="Times,serif" font-size="14.00" fill="#000000">ReplicaSet</text>
</a>
</g>
</g>
<!-- deployment&#45;&gt;replicaset -->
<g id="edge3" class="edge">
<title>deployment&#45;&gt;replicaset</title>
<path fill="none" stroke="#006400" d="M105.8051,-520.8419C105.065,-506.1888 104.0106,-485.311 103.1586,-468.443"/>
<polygon fill="#006400" stroke="#006400" points="106.6334,-467.8537 102.6334,-458.043 99.6423,-468.2069 106.6334,-467.8537"/>
<text text-anchor="middle" x="156.7221" y="-478.8" font-family="Times,serif" font-size="14.00" fill="#000000">Deploys version as</text>
</g>
<!-- replicaset&#45;&gt;pod -->
<g id="edge4" class="edge">
<title>replicaset&#45;&gt;pod</title>
<path fill="none" stroke="#483d8b" d="M64.219,-432.1062C28.9986,-423.0568 -15.3665,-406.3959 5.7221,-383 39.9178,-345.063 398.4984,-330.7524 516.3891,-327.0515"/>
<polygon fill="#483d8b" stroke="#483d8b" points="516.8211,-330.54 526.7093,-326.7355 516.6068,-323.5433 516.8211,-330.54"/>
<text text-anchor="middle" x="92.7221" y="-386.8" font-family="Times,serif" font-size="14.00" fill="#000000">Handles restart &amp; replication of</text>
</g>
<!-- statefulset -->
<g id="node6" class="node">
<title>statefulset</title>
<g id="a_node6"><a xlink:href="https://kubernetes.io/docs/concepts/workloads/controllers/statefulset/" xlink:title="StatefulSet">
<polygon fill="none" stroke="#6495ed" stroke-width="2" points="229.7221,-458 153.7221,-458 153.7221,-422 229.7221,-422 229.7221,-458"/>
<text text-anchor="middle" x="191.7221" y="-436.3" font-family="Times,serif" font-size="14.00" fill="#000000">StatefulSet</text>
</a>
</g>
</g>
<!-- statefulset&#45;&gt;pod -->
<g id="edge5" class="edge">
<title>statefulset&#45;&gt;pod</title>
<path fill="none" stroke="#483d8b" d="M185.3111,-421.9843C182.1529,-409.593 180.7098,-393.5334 189.7221,-383 210.8509,-358.3052 427.852,-336.895 516.4026,-329.1187"/>
<polygon fill="#483d8b" stroke="#483d8b" points="516.883,-332.5903 526.5429,-328.2386 516.2777,-325.6165 516.883,-332.5903"/>
<text text-anchor="middle" x="272.7221" y="-386.8" font-family="Times,serif" font-size="14.00" fill="#000000">Deploys with &quot;sticky&quot; identity</text>
</g>
<!-- daemonset -->
<g id="node7" class="node">
<title>daemonset</title>
<g id="a_node7"><a xlink:href="https://kubernetes.io/docs/concepts/workloads/controllers/daemonset/" xlink:title="DaemonSet">
<polygon fill="none" stroke="#6495ed" stroke-width="2" points="323.7221,-458 243.7221,-458 243.7221,-422 323.7221,-422 323.7221,-458"/>
<text text-anchor="middle" x="283.7221" y="-436.3" font-family="Times,serif" font-size="14.00" fill="#000000">DaemonSet</text>
</a>
</g>
</g>
<!-- daemonset&#45;&gt;pod -->
<g id="edge6" class="edge">
<title>daemonset&#45;&gt;pod</title>
<path fill="none" stroke="#483d8b" d="M319.2546,-421.8496C332.0109,-414.8828 346.3044,-406.5432 358.7221,-398 367.3015,-392.0976 367.599,-388.0213 376.7221,-383 421.963,-358.0999 479.7735,-342.0626 516.7818,-333.5341"/>
<polygon fill="#483d8b" stroke="#483d8b" points="517.647,-336.9271 526.6407,-331.3266 516.1175,-330.0962 517.647,-336.9271"/>
<text text-anchor="middle" x="436.7221" y="-386.8" font-family="Times,serif" font-size="14.00" fill="#000000">Deploys one per node</text>
</g>
<!-- job -->
<g id="node8" class="node">
<title>job</title>
<g id="a_node8"><a xlink:href="https://kubernetes.io/docs/concepts/workloads/controllers/jobs-run-to-completion/" xlink:title="Job">
<polygon fill="none" stroke="#6495ed" stroke-width="2" points="493.7221,-458 439.7221,-458 439.7221,-422 493.7221,-422 493.7221,-458"/>
<text text-anchor="middle" x="466.7221" y="-436.3" font-family="Times,serif" font-size="14.00" fill="#000000">Job</text>
</a>
</g>
</g>
<!-- job&#45;&gt;pod -->
<g id="edge8" class="edge">
<title>job&#45;&gt;pod</title>
<path fill="none" stroke="#483d8b" d="M480.5075,-421.9364C494.8044,-403.2025 517.3043,-373.7199 533.5899,-352.3801"/>
<polygon fill="#483d8b" stroke="#483d8b" points="536.4287,-354.4295 539.7131,-344.3566 530.864,-350.1828 536.4287,-354.4295"/>
<text text-anchor="middle" x="538.2221" y="-386.8" font-family="Times,serif" font-size="14.00" fill="#000000">Is run as a</text>
</g>
<!-- cronjob -->
<g id="node9" class="node">
<title>cronjob</title>
<g id="a_node9"><a xlink:href="https://kubernetes.io/docs/concepts/workloads/controllers/cron-jobs/" xlink:title="CronJob">
<polygon fill="none" stroke="#6495ed" stroke-width="2" points="456.7221,-557 394.7221,-557 394.7221,-521 456.7221,-521 456.7221,-557"/>
<text text-anchor="middle" x="425.7221" y="-535.3" font-family="Times,serif" font-size="14.00" fill="#000000">CronJob</text>
</a>
</g>
</g>
<!-- cronjob&#45;&gt;job -->
<g id="edge7" class="edge">
<title>cronjob&#45;&gt;job</title>
<path fill="none" stroke="#006400" d="M419.9837,-520.9585C416.7955,-507.5949 414.7277,-489.3011 421.7221,-475 424.1681,-469.9988 427.7118,-465.5057 431.7527,-461.5387"/>
<polygon fill="#006400" stroke="#006400" points="434.1082,-464.1296 439.4336,-454.9704 429.5588,-458.8096 434.1082,-464.1296"/>
<text text-anchor="middle" x="486.7221" y="-478.8" font-family="Times,serif" font-size="14.00" fill="#000000">Launches on a schedule</text>
</g>
<!-- service -->
<g id="node10" class="node">
<title>service</title>
<g id="a_node10"><a xlink:href="https://kubernetes.io/docs/concepts/services-networking/service/" xlink:title="Service">
<polygon fill="none" stroke="#6495ed" stroke-width="2" points="620.2221,-458 563.2221,-458 563.2221,-422 620.2221,-422 620.2221,-458"/>
<text text-anchor="middle" x="591.7221" y="-436.3" font-family="Times,serif" font-size="14.00" fill="#000000">Service</text>
</a>
</g>
</g>
<!-- service&#45;&gt;pod -->
<g id="edge12" class="edge">
<title>service&#45;&gt;pod</title>
<path fill="none" stroke="#483d8b" d="M586.1921,-421.9827C582.7032,-410.7442 578.0528,-395.9957 573.7221,-383 570.5325,-373.4283 566.9157,-363.001 563.6433,-353.7129"/>
<polygon fill="#483d8b" stroke="#483d8b" points="566.9029,-352.4326 560.264,-344.1758 560.3049,-354.7705 566.9029,-352.4326"/>
<text text-anchor="middle" x="651.7221" y="-386.8" font-family="Times,serif" font-size="14.00" fill="#000000">Routes (based on labels) to</text>
</g>
<!-- ingress -->
<g id="node11" class="node">
<title>ingress</title>
<g id="a_node11"><a xlink:href="https://kubernetes.io/docs/concepts/services-networking/ingress/" xlink:title="Ingress">
<polygon fill="none" stroke="#6495ed" stroke-width="2" points="643.7221,-557 587.7221,-557 587.7221,-521 643.7221,-521 643.7221,-557"/>
<text text-anchor="middle" x="615.7221" y="-535.3" font-family="Times,serif" font-size="14.00" fill="#000000">Ingress</text>
</a>
</g>
</g>
<!-- ingress&#45;&gt;service -->
<g id="edge11" class="edge">
<title>ingress&#45;&gt;service</title>
<path fill="none" stroke="#006400" d="M605.6318,-520.9725C601.1123,-511.9588 596.2413,-500.7113 593.7221,-490 592.0918,-483.0681 591.3005,-475.4492 590.978,-468.2938"/>
<polygon fill="#006400" stroke="#006400" points="594.4772,-468.2116 590.7979,-458.2762 587.4783,-468.3375 594.4772,-468.2116"/>
<text text-anchor="middle" x="667.7221" y="-478.8" font-family="Times,serif" font-size="14.00" fill="#000000">Routes external requests to</text>
</g>
<!-- ingress_controller -->
<g id="node12" class="node">
<title>ingress_controller</title>
<g id="a_node12"><a xlink:href="https://kubernetes.io/docs/concepts/services-networking/ingress-controllers/" xlink:title="Ingress Controller">
<polygon fill="none" stroke="#6495ed" stroke-width="2" points="727.2221,-673 612.2221,-673 612.2221,-637 727.2221,-637 727.2221,-673"/>
<text text-anchor="middle" x="669.7221" y="-651.3" font-family="Times,serif" font-size="14.00" fill="#000000">Ingress Controller</text>
</a>
</g>
</g>
<!-- ingress_controller&#45;&gt;pod -->
<g id="edge9" class="edge">
<title>ingress_controller&#45;&gt;pod</title>
<path fill="none" stroke="#483d8b" d="M727.3684,-643.7641C741.5315,-637.4899 752.7221,-627.7176 752.7221,-612.5 752.7221,-612.5 752.7221,-612.5 752.7221,-440 752.7221,-412.5126 748.9543,-401.6069 728.7221,-383 690.4559,-347.8078 630.1419,-334.3247 591.2625,-329.1713"/>
<polygon fill="#483d8b" stroke="#483d8b" points="591.247,-325.6444 580.9011,-327.9275 590.4126,-332.5945 591.247,-325.6444"/>
<text text-anchor="middle" x="776.2221" y="-501.8" font-family="Times,serif" font-size="14.00" fill="#000000">Run in a</text>
</g>
<!-- ingress_controller&#45;&gt;ingress -->
<g id="edge10" class="edge">
<title>ingress_controller&#45;&gt;ingress</title>
<path fill="none" stroke="#006400" d="M660.1825,-636.9323C657.3915,-631.5188 654.3782,-625.5464 651.7221,-620 643.2455,-602.2994 634.2803,-582.1327 627.4169,-566.3496"/>
<polygon fill="#006400" stroke="#006400" points="630.6203,-564.9392 623.4382,-557.1502 624.1954,-567.718 630.6203,-564.9392"/>
<text text-anchor="middle" x="696.7221" y="-608.8" font-family="Times,serif" font-size="14.00" fill="#000000">Routes based on</text>
</g>
<!-- persistent_volume -->
<g id="node14" class="node">
<title>persistent_volume</title>
<g id="a_node14"><a xlink:href="https://kubernetes.io/docs/concepts/storage/persistent-volumes/" xlink:title="Persistent Volume">
<polygon fill="none" stroke="#6495ed" stroke-width="2" points="663.2221,-145 546.2221,-145 546.2221,-109 663.2221,-109 663.2221,-145"/>
<text text-anchor="middle" x="604.7221" y="-123.3" font-family="Times,serif" font-size="14.00" fill="#000000">Persistent Volume</text>
</a>
</g>
</g>
<!-- volume&#45;&gt;persistent_volume -->
<g id="edge17" class="edge">
<title>volume&#45;&gt;persistent_volume</title>
<path fill="none" stroke="#006400" d="M443.0407,-201.7584C440.9713,-189.1922 440.7261,-172.8646 449.7221,-162 461.0198,-148.3557 499.9905,-139.5928 536.0258,-134.2474"/>
<polygon fill="#006400" stroke="#006400" points="536.6729,-137.6909 546.0864,-132.8292 535.6957,-130.7594 536.6729,-137.6909"/>
<text text-anchor="middle" x="493.7221" y="-165.8" font-family="Times,serif" font-size="14.00" fill="#000000">Implemented as</text>
</g>
<!-- persistent_volume_claim -->
<g id="node15" class="node">
<title>persistent_volume_claim</title>
<g id="a_node15"><a xlink:href="https://kubernetes.io/docs/concepts/storage/persistent-volumes/#persistentvolumeclaims" xlink:title="PersistentVolumeClaim">
<polygon fill="none" stroke="#6495ed" stroke-width="2" points="450.2221,-145 303.2221,-145 303.2221,-109 450.2221,-109 450.2221,-145"/>
<text text-anchor="middle" x="376.7221" y="-123.3" font-family="Times,serif" font-size="14.00" fill="#000000">PersistentVolumeClaim</text>
</a>
</g>
</g>
<!-- volume&#45;&gt;persistent_volume_claim -->
<g id="edge18" class="edge">
<title>volume&#45;&gt;persistent_volume_claim</title>
<path fill="none" stroke="#006400" d="M417.1212,-212.6388C386.7968,-204.6514 343.498,-191.1355 333.7221,-177 327.7888,-168.4206 331.5252,-159.6149 338.8001,-151.8306"/>
<polygon fill="#006400" stroke="#006400" points="341.2602,-154.3241 346.3,-145.0047 336.5485,-149.1472 341.2602,-154.3241"/>
<text text-anchor="middle" x="377.7221" y="-165.8" font-family="Times,serif" font-size="14.00" fill="#000000">Implemented as</text>
</g>
<!-- storage_class -->
<g id="node18" class="node">
<title>storage_class</title>
<g id="a_node18"><a xlink:href="https://kubernetes.io/docs/concepts/storage/storage-classes/" xlink:title="Storage Class">
<polygon fill="none" stroke="#6495ed" stroke-width="2" points="650.2221,-52 559.2221,-52 559.2221,-16 650.2221,-16 650.2221,-52"/>
<text text-anchor="middle" x="604.7221" y="-30.3" font-family="Times,serif" font-size="14.00" fill="#000000">Storage Class</text>
</a>
</g>
</g>
<!-- persistent_volume&#45;&gt;storage_class -->
<g id="edge20" class="edge">
<title>persistent_volume&#45;&gt;storage_class</title>
<path fill="none" stroke="#006400" d="M604.7221,-108.6262C604.7221,-95.4212 604.7221,-77.369 604.7221,-62.3274"/>
<polygon fill="#006400" stroke="#006400" points="608.2222,-62.0192 604.7221,-52.0192 601.2222,-62.0192 608.2222,-62.0192"/>
<text text-anchor="middle" x="651.2221" y="-72.8" font-family="Times,serif" font-size="14.00" fill="#000000">Provisioned with</text>
</g>
<!-- persistent_volume_claim&#45;&gt;persistent_volume -->
<g id="edge19" class="edge">
<title>persistent_volume_claim&#45;&gt;persistent_volume</title>
<path fill="none" stroke="#006400" d="M450.4323,-127C477.8894,-127 508.9251,-127 535.9243,-127"/>
<polygon fill="#006400" stroke="#006400" points="536.0586,-130.5001 546.0585,-127 536.0585,-123.5001 536.0586,-130.5001"/>
<text text-anchor="middle" x="498.2221" y="-133.8" font-family="Times,serif" font-size="14.00" fill="#000000">A request for a</text>
</g>
<!-- volume_snapshot -->
<g id="node16" class="node">
<title>volume_snapshot</title>
<g id="a_node16"><a xlink:href="https://kubernetes.io/docs/concepts/storage/volume-snapshots/" xlink:title="Volume Snapshot">
<polygon fill="none" stroke="#6495ed" stroke-width="2" points="680.7221,-238 566.7221,-238 566.7221,-202 680.7221,-202 680.7221,-238"/>
<text text-anchor="middle" x="623.7221" y="-216.3" font-family="Times,serif" font-size="14.00" fill="#000000">Volume Snapshot</text>
</a>
</g>
</g>
<!-- volume_snapshot_content -->
<g id="node17" class="node">
<title>volume_snapshot_content</title>
<g id="a_node17"><a xlink:href="https://kubernetes.io/docs/concepts/storage/volume-snapshots/" xlink:title="Volume Snapshot Content">
<polygon fill="none" stroke="#6495ed" stroke-width="2" points="838.2221,-145 677.2221,-145 677.2221,-109 838.2221,-109 838.2221,-145"/>
<text text-anchor="middle" x="757.7221" y="-123.3" font-family="Times,serif" font-size="14.00" fill="#000000">Volume Snapshot Content</text>
</a>
</g>
</g>
<!-- volume_snapshot&#45;&gt;volume_snapshot_content -->
<g id="edge21" class="edge">
<title>volume_snapshot&#45;&gt;volume_snapshot_content</title>
<path fill="none" stroke="#006400" d="M649.8768,-201.8479C670.8132,-187.3174 700.3543,-166.815 723.226,-150.9413"/>
<polygon fill="#006400" stroke="#006400" points="725.4137,-153.6834 731.6334,-145.1063 721.4225,-147.9327 725.4137,-153.6834"/>
<text text-anchor="middle" x="780.7221" y="-165.8" font-family="Times,serif" font-size="14.00" fill="#000000">Request the generation of a</text>
</g>
<!-- volume_snapshot_content&#45;&gt;volume -->
<g id="edge23" class="edge">
<title>volume_snapshot_content&#45;&gt;volume</title>
<path fill="none" stroke="#006400" stroke-dasharray="5,2" d="M677.1574,-143.7428C674.9903,-144.1693 672.842,-144.5891 670.7221,-145 629.0425,-153.0793 617.2723,-149.4242 576.7221,-162 559.2933,-167.4052 518.6213,-186.0836 487.569,-200.8013"/>
<polygon fill="#006400" stroke="#006400" points="485.8033,-197.7654 478.2773,-205.2227 488.811,-204.0863 485.8033,-197.7654"/>
<text text-anchor="middle" x="629.7221" y="-165.8" font-family="Times,serif" font-size="14.00" fill="#000000">Backups content of</text>
</g>
<!-- volume_snapshot_class -->
<g id="node19" class="node">
<title>volume_snapshot_class</title>
<g id="a_node19"><a xlink:href="https://kubernetes.io/docs/concepts/storage/volume-snapshot-classes/" xlink:title="Volume Snapshot Class">
<polygon fill="none" stroke="#6495ed" stroke-width="2" points="819.2221,-52 672.2221,-52 672.2221,-16 819.2221,-16 819.2221,-52"/>
<text text-anchor="middle" x="745.7221" y="-30.3" font-family="Times,serif" font-size="14.00" fill="#000000">Volume Snapshot Class</text>
</a>
</g>
</g>
<!-- volume_snapshot_content&#45;&gt;volume_snapshot_class -->
<g id="edge22" class="edge">
<title>volume_snapshot_content&#45;&gt;volume_snapshot_class</title>
<path fill="none" stroke="#006400" d="M755.3513,-108.6262C753.6475,-95.4212 751.3181,-77.369 749.3773,-62.3274"/>
<polygon fill="#006400" stroke="#006400" points="752.7982,-61.489 748.0472,-52.0192 745.8558,-62.3849 752.7982,-61.489"/>
<text text-anchor="middle" x="798.2221" y="-72.8" font-family="Times,serif" font-size="14.00" fill="#000000">Provisioned with</text>
</g>
<!-- rolebinding -->
<g id="node22" class="node">
<title>rolebinding</title>
<g id="a_node22"><a xlink:href="https://kubernetes.io/docs/reference/access-authn-authz/rbac/#rolebinding-and-clusterrolebinding" xlink:title="Role Binding">
<polygon fill="none" stroke="#6495ed" stroke-width="2" points="912.2221,-673 823.2221,-673 823.2221,-637 912.2221,-637 912.2221,-673"/>
<text text-anchor="middle" x="867.7221" y="-651.3" font-family="Times,serif" font-size="14.00" fill="#000000">Role Binding</text>
</a>
</g>
</g>
<!-- role -->
<g id="node23" class="node">
<title>role</title>
<g id="a_node23"><a xlink:href="https://kubernetes.io/docs/reference/access-authn-authz/rbac/#role-and-clusterrole" xlink:title="Role">
<polygon fill="none" stroke="#6495ed" stroke-width="2" points="1114.7221,-673 1060.7221,-673 1060.7221,-637 1114.7221,-637 1114.7221,-673"/>
<text text-anchor="middle" x="1087.7221" y="-651.3" font-family="Times,serif" font-size="14.00" fill="#000000">Role</text>
</a>
</g>
</g>
<!-- rolebinding&#45;&gt;role -->
<g id="edge24" class="edge">
<title>rolebinding&#45;&gt;role</title>
<path fill="none" stroke="#006400" d="M912.2424,-655C952.8696,-655 1012.2332,-655 1050.424,-655"/>
<polygon fill="#006400" stroke="#006400" points="1050.6011,-658.5001 1060.6011,-655 1050.6011,-651.5001 1050.6011,-658.5001"/>
<text text-anchor="middle" x="986.4721" y="-661.8" font-family="Times,serif" font-size="14.00" fill="#000000">Grants permissions in ...</text>
</g>
<!-- service_account -->
<g id="node24" class="node">
<title>service_account</title>
<g id="a_node24"><a xlink:href="https://kubernetes.io/docs/tasks/configure-pod-container/configure-service-account/" xlink:title="Service Account">
<polygon fill="none" stroke="#6495ed" stroke-width="2" points="930.2221,-458 823.2221,-458 823.2221,-422 930.2221,-422 930.2221,-458"/>
<text text-anchor="middle" x="876.7221" y="-436.3" font-family="Times,serif" font-size="14.00" fill="#000000">Service Account</text>
</a>
</g>
</g>
<!-- rolebinding&#45;&gt;service_account -->
<g id="edge25" class="edge">
<title>rolebinding&#45;&gt;service_account</title>
<path fill="none" stroke="#006400" d="M870.1871,-636.8355C871.0102,-629.3187 871.7221,-620.504 871.7221,-612.5 871.7221,-612.5 871.7221,-612.5 871.7221,-482.5 871.7221,-477.8613 872.0196,-472.9572 872.4693,-468.1931"/>
<polygon fill="#006400" stroke="#006400" points="875.9592,-468.4828 873.641,-458.1447 869.0063,-467.672 875.9592,-468.4828"/>
<text text-anchor="middle" x="889.7221" y="-535.3" font-family="Times,serif" font-size="14.00" fill="#000000">... to a</text>
</g>
<!-- service_account&#45;&gt;pod -->
<g id="edge28" class="edge">
<title>service_account&#45;&gt;pod</title>
<path fill="none" stroke="#483d8b" d="M844.8759,-421.7519C822.6593,-409.5705 792.0348,-393.855 763.7221,-383 704.7398,-360.3863 633.2151,-342.9957 590.6968,-333.6528"/>
<polygon fill="#483d8b" stroke="#483d8b" points="591.3089,-330.2043 580.7945,-331.5075 589.8267,-337.0456 591.3089,-330.2043"/>
<text text-anchor="middle" x="905.2221" y="-386.8" font-family="Times,serif" font-size="14.00" fill="#000000">Provides identity to process running in a</text>
</g>
<!-- cluster_rolebinding -->
<g id="node25" class="node">
<title>cluster_rolebinding</title>
<g id="a_node25"><a xlink:href="https://kubernetes.io/docs/reference/access-authn-authz/rbac/#rolebinding-and-clusterrolebinding" xlink:title="Cluster Role Binding">
<polygon fill="none" stroke="#6495ed" stroke-width="2" points="1270.7221,-673 1138.7221,-673 1138.7221,-637 1270.7221,-637 1270.7221,-673"/>
<text text-anchor="middle" x="1204.7221" y="-651.3" font-family="Times,serif" font-size="14.00" fill="#000000">Cluster Role Binding</text>
</a>
</g>
</g>
<!-- cluster_role -->
<g id="node26" class="node">
<title>cluster_role</title>
<g id="a_node26"><a xlink:href="https://kubernetes.io/docs/reference/access-authn-authz/rbac/#role-and-clusterrole" xlink:title="Cluster Role">
<polygon fill="none" stroke="#6495ed" stroke-width="2" points="1504.2221,-673 1419.2221,-673 1419.2221,-637 1504.2221,-637 1504.2221,-673"/>
<text text-anchor="middle" x="1461.7221" y="-651.3" font-family="Times,serif" font-size="14.00" fill="#000000">Cluster Role</text>
</a>
</g>
</g>
<!-- cluster_rolebinding&#45;&gt;cluster_role -->
<g id="edge26" class="edge">
<title>cluster_rolebinding&#45;&gt;cluster_role</title>
<path fill="none" stroke="#006400" d="M1270.906,-655C1313.8661,-655 1369.0871,-655 1409.0609,-655"/>
<polygon fill="#006400" stroke="#006400" points="1409.1352,-658.5001 1419.1351,-655 1409.1351,-651.5001 1409.1352,-658.5001"/>
<text text-anchor="middle" x="1344.9721" y="-661.8" font-family="Times,serif" font-size="14.00" fill="#000000">Grants permissions in ...</text>
</g>
<!-- cluster_service_account -->
<g id="node27" class="node">
<title>cluster_service_account</title>
<g id="a_node27"><a xlink:href="https://kubernetes.io/docs/tasks/configure-pod-container/configure-service-account/" xlink:title="Cluster Service Account">
<polygon fill="none" stroke="#6495ed" stroke-width="2" points="1287.2221,-458 1138.2221,-458 1138.2221,-422 1287.2221,-422 1287.2221,-458"/>
<text text-anchor="middle" x="1212.7221" y="-436.3" font-family="Times,serif" font-size="14.00" fill="#000000">Cluster Service Account</text>
</a>
</g>
</g>
<!-- cluster_rolebinding&#45;&gt;cluster_service_account -->
<g id="edge27" class="edge">
<title>cluster_rolebinding&#45;&gt;cluster_service_account</title>
<path fill="none" stroke="#006400" d="M1207.1871,-636.8355C1208.0102,-629.3187 1208.7221,-620.504 1208.7221,-612.5 1208.7221,-612.5 1208.7221,-612.5 1208.7221,-482.5 1208.7221,-477.8727 1208.9601,-472.9744 1209.3199,-468.2126"/>
<polygon fill="#006400" stroke="#006400" points="1212.8132,-468.4464 1210.2572,-458.1645 1205.8435,-467.7961 1212.8132,-468.4464"/>
<text text-anchor="middle" x="1226.7221" y="-535.3" font-family="Times,serif" font-size="14.00" fill="#000000">... to a</text>
</g>
<!-- cluster_service_account&#45;&gt;pod -->
<g id="edge29" class="edge">
<title>cluster_service_account&#45;&gt;pod</title>
<path fill="none" stroke="#483d8b" d="M1170.2781,-421.8362C1156.2595,-416.263 1140.4752,-410.4369 1125.7221,-406 930.1364,-347.178 683.6788,-331.3148 591.1172,-327.2878"/>
<polygon fill="#483d8b" stroke="#483d8b" points="590.9953,-323.7798 580.8591,-326.8632 590.7057,-330.7738 590.9953,-323.7798"/>
<text text-anchor="middle" x="1206.2221" y="-386.8" font-family="Times,serif" font-size="14.00" fill="#000000">Provides identity to process running in a</text>
</g>
</g>
</svg>
